<?xml version="1.0" encoding="UTF-8"?>
<svg id="Layer_2" data-name="Layer 2" xmlns="http://www.w3.org/2000/svg" viewBox="0 0 350 139.29">
  <defs>
    <style>
      .cls-1 {
        fill: #1f3c6c;
      }

      .cls-2 {
        fill: #112444;
      }
    </style>
  </defs>
  <g id="ENTREGA">
    <g>
      <path class="cls-1" d="m208.68,136.16c-17.32,9.29-41.3-5.06-41.3-5.06-18.02,8.1-43.83,7.79-43.83,7.79-17.1.51-31.18-2.43-43.73-5.67-21.65-5.58-48.13-21-65.85-38.77-8.12-8.14-12.33-15.61-13.29-21.54,19.79,3.3,42.7-.84,61.49,5.46,6.04,2.02,11.72,5.09,17.86,6.78,15.49,4.25,32.4-.59,47.88,3.7,5.22,1.44,10.08,3.88,14.94,6.3.03.02.06.03.09.05,4.04,2.01,8.08,4,12.35,5.42,9.13,3.03,18.94,3.27,28.54,2.69,29.07-1.78,50.75-20.61,83-29.06-32.25,34.14-71.92,46.77-71.92,46.77l16.71,7.84c9.58,3.02-2.94,7.29-2.94,7.29Z"/>
      <path class="cls-2" d="m350,50.3c-.44-.1-2.38,1.35-2.8,1.55-2.56,1.23-5.29,2.15-8.06,2.78-7.13,1.63-14.51,1.09-21.54-.77-6.42-1.7-12.62-4.24-18.94-6.27-2.83-.91-5.71-1.25-8.47.09-1.56.76-2.86,1.93-4.1,3.12s-2.5,2.3-3.76,3.45c-3.08,2.83-6.19,5.63-9.38,8.34-.77.65-2.13,2.32-3.09,2.57-32.25,8.44-56.96,27.15-86.03,28.93-9.59.59-19.41.34-28.54-2.69-4.27-1.42-8.31-3.42-12.35-5.42-.03-.02-.06-.03-.09-.05-4.86-2.43-9.72-4.86-14.94-6.3-15.48-4.29-32.38.56-47.88-3.7-6.15-1.69-11.82-4.76-17.86-6.78-18.79-6.3-42.21-2.16-62-5.46-.02-.18-.05-.36-.07-.54-.7-5.72,2.22-9.95,9.13-11.93,0,0,17.71-7.16,107.71-6.08,28.33.34,56.01,2.03,56.01,2.03,0,0,36.67,3.65,64.92-1.76,25-4.77,36.87-11.33,47.24-13.36,0,0,5.16-.67,6.53-4.01,0,0,4.31-22.98,21.31-28.04,0,0-2.32,8.4,2.43,14.57,4.76,6.18,3.34,13.36,3.34,13.36,0,0,10.73,4.05,15.49,10.63,4.76,6.57,11.24,10.73,15.8,11.74Z"/>
    </g>
  </g>
</svg>